<svg xmlns="http://www.w3.org/2000/svg" viewBox="0 0 800 500"><defs><linearGradient id="bg" x1="0" y1="0" x2="1" y2="1"><stop offset="0" stop-color="#1c1c1c"/><stop offset="1" stop-color="#0d0d0d"/></linearGradient></defs><rect width="800" height="500" fill="url(#bg)"/><circle cx="400" cy="250" r="196" fill="none" stroke="#2f2f2f" stroke-width="10" stroke-dasharray="5 11"/><circle cx="400" cy="250" r="170" fill="#121212" stroke="#262626" stroke-width="46"/><path d="M 593 250 A 193 193 0 0 1 400 443" fill="none" stroke="#eab308" stroke-width="9" stroke-linecap="round"/><circle cx="400" cy="250" r="122" fill="#cdd2d9"/><circle cx="400" cy="250" r="112" fill="#e9edf2"/><line x1="438.0" y1="250.0" x2="504.0" y2="250.0" stroke="#aab1bb" stroke-width="16" stroke-linecap="round"/><line x1="419.0" y1="282.9" x2="452.0" y2="340.1" stroke="#aab1bb" stroke-width="16" stroke-linecap="round"/><line x1="381.0" y1="282.9" x2="348.0" y2="340.1" stroke="#aab1bb" stroke-width="16" stroke-linecap="round"/><line x1="362.0" y1="250.0" x2="296.0" y2="250.0" stroke="#aab1bb" stroke-width="16" stroke-linecap="round"/><line x1="381.0" y1="217.1" x2="348.0" y2="159.9" stroke="#aab1bb" stroke-width="16" stroke-linecap="round"/><line x1="419.0" y1="217.1" x2="452.0" y2="159.9" stroke="#aab1bb" stroke-width="16" stroke-linecap="round"/><circle cx="400" cy="250" r="34" fill="#171717"/><circle cx="400.0" cy="230.0" r="4.5" fill="#666c75"/><circle cx="419.0" cy="243.8" r="4.5" fill="#666c75"/><circle cx="411.8" cy="266.2" r="4.5" fill="#666c75"/><circle cx="388.2" cy="266.2" r="4.5" fill="#666c75"/><circle cx="381.0" cy="243.8" r="4.5" fill="#666c75"/></svg>